<?xml version="1.0" encoding="UTF-8"?>
<svg xmlns="http://www.w3.org/2000/svg" xmlns:xlink="http://www.w3.org/1999/xlink" version="1.1" viewBox="0 0 20 20">
  <defs>
    <style>
      .cls-1 {
        fill: #bfc1c3;
        stroke: #000;
        stroke-miterlimit: 10;
      }

      .cls-2 {
        display: none;
      }
    </style>
  </defs>
  <g id="erHsblBxU6t1" shape-rendering="geometricPrecision" text-rendering="geometricPrecision">
    <image class="cls-2" width="1000" height="667" transform="translate(-534.3 -353) scale(1.1)" xlink:href="../../../../../../Downloads/AdobeStock_271701557_Preview.jpeg"/>
    <path class="cls-1" d="M314.4,221.3c6.6,10.6-1.3,21.6-10.3,28.7-14.3,11.3-30.7,22.4-48.3,28.8-47,17.2-59-21-56.1-59.1,2.1-28.3,11.3-55.4,23.4-80.2,3.4-7,7.5-14.9,10.1-22.7,4.4-12.6,3.1-24-12.1-18.1-17.2,7-33.5,20.8-48.3,32.5-20.6,16.8-39.2,32.6-59.3,48.9-50.1,39.2-126.6,101.4-193.5,81.6-20.2-6.1-35.8-24.4-37.4-45C-128.7,108.7,84.3-76.2,113.3-171.3c1.2-4.6,1.7-10.1-.1-15-13-32.6-74.3,8.6-99.6,24.5C-40-126.2-103.7-69.7-149.4-29.4c-12,10.6-23,19.9-34.7,30.4-22.7,20.1-55,56.7-75.3,63.3-7.7,2.4-14.9-1.2-19.5-8.5-7.4-11.6-1-24.4,7.5-34.7C-182.7-70.4,29.8-295,141.3-246.8c41.7,22.5,33.9,77.4,17.3,114.2C111.9-28.6,15.9,60.4-44.7,157.4c-6.3,12.2-16.1,30.1-8.2,42.9C-17.6,242.3,145.9,61.4,209.8,49.7c19.1-6.5,42.3-9.6,60.5,1,57.6,38.6-22.1,128.7-26.2,176.8-1.2,16.1,14.6,9.5,23,4.4,14.2-7.5,33.6-26.9,47.2-10.9l.2.3Z"/>
  </g>
</svg>